<svg width="255" height="46" viewBox="0 0 255 46" fill="none" xmlns="http://www.w3.org/2000/svg">
<path d="M158.058 9.90831C159.242 9.57046 160.781 9.24919 162.675 8.94451C164.568 8.63983 166.665 8.4881 168.965 8.4881C171.13 8.4881 172.939 8.78418 174.393 9.37635C175.848 9.9679 177.006 10.7966 177.869 11.8623C178.731 12.9275 179.34 14.2126 179.695 15.7182C180.05 17.2231 180.228 18.8719 180.228 20.6643V35.579H174.089V21.6281C174.089 20.2079 173.996 18.9984 173.81 18.0008C173.624 17.0026 173.319 16.1912 172.897 15.5658C172.474 14.9399 171.899 14.4835 171.172 14.196C170.445 13.9085 169.557 13.7648 168.508 13.7648C167.731 13.7648 166.919 13.8157 166.073 13.9171C165.228 14.0184 164.602 14.1032 164.196 14.1708V35.579H158.058V9.90954L158.058 9.90831Z" fill="white"/>
<path d="M92.7413 45.0137C92.3021 45.0137 91.6848 44.9714 90.8899 44.8866C90.095 44.8018 89.3935 44.6415 88.7848 44.405L89.5962 39.3826C90.3407 39.6191 91.2363 39.7377 92.2849 39.7377C93.7051 39.7377 94.7039 39.3224 95.2783 38.4944C95.8526 37.6664 96.1407 36.4231 96.1407 34.7657V9.90771H102.279V34.8665C102.279 38.3156 101.459 40.8704 99.819 42.5271C98.1789 44.1838 95.8195 45.0131 92.7413 45.0131V45.0137Z" fill="white"/>
<path d="M57.9811 31.1618C59.604 31.1618 60.7878 30.967 61.5323 30.5782C62.2768 30.1894 62.6484 29.5216 62.6484 28.5744C62.6484 27.6954 62.251 26.9687 61.4561 26.3931C60.6612 25.8181 59.351 25.1922 57.5241 24.5165C56.408 24.1105 55.3846 23.6792 54.4545 23.2228C53.5245 22.7664 52.7217 22.2338 52.0447 21.6251C51.3684 21.0163 50.8358 20.2804 50.4464 19.4186C50.0575 18.5561 49.8628 17.499 49.8628 16.2477C49.8628 13.8127 50.759 11.8937 52.5521 10.4901C54.3446 9.08642 56.7796 8.38492 59.8571 8.38492C61.4125 8.38492 62.9009 8.52866 64.3217 8.81614C65.7419 9.10362 66.8071 9.38251 67.5178 9.6534L66.4017 14.6248C65.7253 14.3207 64.8629 14.0418 63.8143 13.7875C62.7657 13.5338 61.5482 13.4073 60.1618 13.4073C58.9105 13.4073 57.8957 13.6186 57.1181 14.0412C56.3404 14.4638 55.9515 15.1156 55.9515 15.994C55.9515 16.4332 56.0277 16.8226 56.1801 17.1605C56.3324 17.499 56.5947 17.8116 56.9663 18.0991C57.3386 18.3866 57.8288 18.6741 58.4375 18.9616C59.0463 19.2491 59.7902 19.5445 60.6698 19.8498C62.1244 20.391 63.3585 20.923 64.3733 21.4476C65.3881 21.9721 66.2254 22.5637 66.8845 23.2228C67.5442 23.8826 68.0264 24.635 68.3305 25.4803C68.6352 26.3255 68.7869 27.3403 68.7869 28.524C68.7869 31.0604 67.8483 32.98 65.971 34.2817C64.0944 35.584 61.4137 36.2351 57.9301 36.2351C55.5965 36.2351 53.7193 36.0404 52.299 35.6515C50.8788 35.2627 49.8806 34.95 49.3057 34.7129L50.3708 29.5892C51.2843 29.9615 52.3746 30.3165 53.6431 30.6544C54.9116 30.9928 56.3576 31.1618 57.9811 31.1618Z" fill="white"/>
<path d="M23.8936 22.3352C23.8936 24.3641 23.6313 26.2248 23.1073 27.9153C22.5833 29.6064 21.8308 31.0604 20.8498 32.2779C19.8688 33.496 18.6434 34.4426 17.1722 35.1189C15.701 35.7953 14.0357 36.1337 12.175 36.1337C10.9237 36.1337 9.77379 35.9814 8.72521 35.6773C7.67664 35.3726 6.81419 35.0348 6.13787 34.6625V44.9609H0V9.90587C1.25129 9.56802 2.79005 9.24675 4.6163 8.94207C6.44255 8.63738 8.37078 8.48566 10.3997 8.48566C12.4969 8.48566 14.3735 8.80692 16.0308 9.45007C17.6882 10.0926 19.1004 11.014 20.2669 12.2149C21.4334 13.4159 22.3296 14.8699 22.9556 16.5775C23.5809 18.2859 23.8942 20.2049 23.8942 22.3358L23.8936 22.3352ZM17.6028 22.4365C17.6028 19.6969 16.9854 17.5665 15.7513 16.0444C14.5166 14.5228 12.5294 13.7617 9.79037 13.7617C9.21541 13.7617 8.61526 13.7869 7.98931 13.8379C7.36336 13.8889 6.74662 13.9988 6.13726 14.1677V29.3361C6.67844 29.7084 7.39714 30.0548 8.29338 30.3761C9.18961 30.6974 10.1448 30.8577 11.1596 30.8577C13.3919 30.8577 15.0234 30.0966 16.0554 28.5744C17.0868 27.0528 17.6028 25.0067 17.6028 22.4365Z" fill="white"/>
<path d="M36.5852 8.38367C38.6142 8.38367 40.3219 8.63736 41.7089 9.14476C43.0953 9.65215 44.2029 10.3623 45.0322 11.2751C45.8608 12.1879 46.4524 13.2961 46.8074 14.5983C47.1625 15.9 47.34 17.3288 47.34 18.8848V34.9666C46.3934 35.1693 44.9646 35.415 43.0536 35.7025C41.1425 35.9894 38.9864 36.1331 36.5858 36.1331C34.9961 36.1331 33.5415 35.9814 32.2226 35.6767C30.9038 35.372 29.7796 34.8818 28.849 34.2055C27.919 33.5292 27.1923 32.6501 26.6677 31.5678C26.1431 30.4854 25.8814 29.1494 25.8814 27.5602C25.8814 26.038 26.1769 24.753 26.769 23.7044C27.3606 22.6558 28.1641 21.802 29.1789 21.1422C30.1936 20.4831 31.3688 20.0095 32.7048 19.722C34.0409 19.4345 35.4359 19.2908 36.8905 19.2908C37.5668 19.2908 38.2769 19.3332 39.0208 19.418C39.7647 19.5027 40.5596 19.6465 41.4055 19.8492V18.8344C41.4055 18.1243 41.3213 17.448 41.1518 16.8054C40.9828 16.1629 40.6868 15.5965 40.2641 15.1057C39.8415 14.6155 39.2831 14.2347 38.5896 13.9644C37.8967 13.6935 37.0257 13.559 35.9771 13.559C34.5563 13.559 33.254 13.6603 32.0709 13.863C30.8872 14.0657 29.9227 14.3029 29.1789 14.5731L28.4178 9.60117C29.1961 9.33089 30.3288 9.05999 31.8172 8.78971C33.305 8.51942 34.8947 8.38428 36.5864 8.38428L36.5852 8.38367ZM37.092 31.2631C38.9858 31.2631 40.4232 31.1617 41.4042 30.9584V24.1608C41.0664 24.0594 40.5756 23.9581 39.933 23.8561C39.2905 23.7548 38.5804 23.7038 37.8021 23.7038C37.1258 23.7038 36.4409 23.7548 35.7473 23.8561C35.0544 23.9575 34.4285 24.1436 33.8707 24.4139C33.3123 24.6848 32.8645 25.065 32.5261 25.5558C32.1876 26.046 32.0187 26.6634 32.0187 27.4073C32.0187 28.8619 32.4751 29.8674 33.3885 30.4258C34.3019 30.9842 35.536 31.2631 37.092 31.2631Z" fill="white"/>
<path d="M81.9989 8.38367C84.0278 8.38367 85.7361 8.63736 87.1226 9.14476C88.509 9.65215 89.6165 10.3623 90.4458 11.2751C91.2738 12.1879 91.866 13.2961 92.2211 14.5983C92.5761 15.9 92.7536 17.3288 92.7536 18.8848V34.9666C91.807 35.1693 90.3782 35.415 88.4672 35.7025C86.5562 35.9894 84.4001 36.1331 81.9989 36.1331C80.4091 36.1331 78.9551 35.9814 77.6356 35.6767C76.3168 35.372 75.1926 34.8818 74.262 34.2055C73.332 33.5292 72.6053 32.6501 72.0807 31.5678C71.5561 30.4854 71.2944 29.1494 71.2944 27.5602C71.2944 26.038 71.5905 24.753 72.1827 23.7044C72.7742 22.6558 73.5777 21.802 74.5925 21.1422C75.6073 20.4831 76.7824 20.0095 78.1185 19.722C79.4545 19.4345 80.8495 19.2908 82.3041 19.2908C82.9805 19.2908 83.6906 19.3332 84.4345 19.418C85.179 19.5027 85.9732 19.6465 86.8191 19.8492V18.8344C86.8191 18.1243 86.7349 17.448 86.5654 16.8054C86.3965 16.1629 86.1004 15.5965 85.6778 15.1057C85.2551 14.6155 84.6968 14.2347 84.0032 13.9644C83.3103 13.6935 82.4393 13.559 81.3907 13.559C79.9705 13.559 78.6682 13.6603 77.4845 13.863C76.3008 14.0657 75.3364 14.3029 74.5925 14.5731L73.8314 9.60117C74.6091 9.33089 75.7424 9.05999 77.2308 8.78971C78.7186 8.51942 80.3084 8.38428 81.9995 8.38428L81.9989 8.38367ZM82.5062 31.2631C84.4001 31.2631 85.8375 31.1617 86.8185 30.9584V24.1608C86.4806 24.0594 85.9898 23.9581 85.3473 23.8561C84.7048 23.7548 83.9946 23.7038 83.217 23.7038C82.5406 23.7038 81.8557 23.7548 81.1622 23.8561C80.4693 23.9575 79.8433 24.1436 79.2856 24.4139C78.7272 24.6848 78.2794 25.065 77.9409 25.5558C77.6025 26.046 77.4335 26.6634 77.4335 27.4073C77.4335 28.8619 77.8899 29.8674 78.8034 30.4258C79.7168 30.9842 80.9509 31.2631 82.5069 31.2631H82.5062Z" fill="white"/>
<path d="M104.616 22.439C104.616 20.1053 104.963 18.0592 105.656 16.3005C106.349 14.5418 107.271 13.0786 108.421 11.9121C109.571 10.7456 110.89 9.86593 112.378 9.27438C113.866 8.68283 115.387 8.38675 116.943 8.38675C120.596 8.38675 123.445 9.51948 125.492 11.7856C127.538 14.0516 128.561 17.4332 128.561 21.9316C128.561 22.2701 128.553 22.6503 128.535 23.0735C128.518 23.4962 128.493 23.8764 128.459 24.2149H110.957C111.126 26.3452 111.879 27.9945 113.215 29.161C114.55 30.3282 116.487 30.9111 119.023 30.9111C120.512 30.9111 121.873 30.776 123.108 30.5051C124.342 30.2348 125.314 29.9473 126.024 29.6426L126.836 34.665C126.498 34.8339 126.033 35.0114 125.441 35.1976C124.849 35.3837 124.173 35.5526 123.412 35.705C122.651 35.8573 121.831 35.9838 120.952 36.0852C120.073 36.1865 119.176 36.2375 118.263 36.2375C115.93 36.2375 113.9 35.8911 112.175 35.1976C110.45 34.5046 109.03 33.5408 107.914 32.3061C106.798 31.0714 105.969 29.6174 105.428 27.9429C104.887 26.269 104.616 24.4342 104.616 22.439ZM122.423 19.6993C122.423 18.8541 122.305 18.0506 122.068 17.2895C121.831 16.5284 121.485 15.8693 121.028 15.3109C120.571 14.7531 120.013 14.3133 119.353 13.992C118.694 13.6708 117.907 13.5098 116.994 13.5098C116.047 13.5098 115.218 13.6874 114.508 14.0424C113.798 14.3975 113.197 14.8625 112.707 15.4374C112.216 16.0124 111.836 16.6721 111.566 17.416C111.295 18.1599 111.11 18.921 111.008 19.6987H122.422L122.423 19.6993Z" fill="white"/>
<path d="M155.986 22.2866C155.986 24.3838 155.682 26.2942 155.073 28.0191C154.465 29.744 153.602 31.2152 152.487 32.4327C151.371 33.6508 150.026 34.5974 148.453 35.2737C146.881 35.95 145.147 36.2885 143.253 36.2885C141.36 36.2885 139.634 35.9507 138.079 35.2737C136.523 34.5974 135.187 33.6508 134.071 32.4327C132.955 31.2152 132.084 29.744 131.459 28.0191C130.833 26.2942 130.52 24.3838 130.52 22.2866C130.52 20.1901 130.833 18.2871 131.459 16.5794C132.084 14.8717 132.964 13.4091 134.096 12.1916C135.23 10.9741 136.574 10.0355 138.13 9.37635C139.686 8.71661 141.393 8.38736 143.253 8.38736C145.114 8.38736 146.83 8.71661 148.403 9.37635C149.976 10.0355 151.32 10.9747 152.436 12.1916C153.552 13.4097 154.423 14.8717 155.049 16.5794C155.675 18.2877 155.987 20.1901 155.987 22.2866H155.986ZM149.695 22.2866C149.695 19.6489 149.129 17.5604 147.996 16.0216C146.864 14.4828 145.282 13.7132 143.253 13.7132C141.223 13.7132 139.642 14.4828 138.509 16.0216C137.377 17.561 136.81 19.6489 136.81 22.2866C136.81 24.9581 137.376 27.0725 138.509 28.6278C139.642 30.1838 141.223 30.9615 143.253 30.9615C145.282 30.9615 146.863 30.1838 147.996 28.6278C149.129 27.0719 149.695 24.9581 149.695 22.2866Z" fill="white"/>
<path d="M102.963 3.80484C102.963 4.95477 102.591 5.86759 101.847 6.54452C101.102 7.22085 100.223 7.55931 99.2085 7.55931C98.1599 7.55931 97.2637 7.22085 96.5198 6.54452C95.7759 5.8682 95.4036 4.95477 95.4036 3.80484C95.4036 2.62113 95.7759 1.69111 96.5198 1.01479C97.2643 0.338468 98.1599 0 99.2085 0C100.223 0 101.102 0.338468 101.847 1.01479C102.591 1.69111 102.963 2.62113 102.963 3.80484Z" fill="white"/>
<path d="M206.921 9.90401C208.105 9.56615 209.643 9.24489 211.538 8.9402C213.432 8.63552 215.529 8.4838 217.829 8.4838C219.993 8.4838 221.803 8.77926 223.257 9.37143C224.712 9.96359 225.87 10.7916 226.732 11.8574C227.595 12.9226 228.203 14.2076 228.558 15.7132C228.913 17.2182 229.091 18.8669 229.091 20.6594V35.5741H222.952V21.6232C222.952 20.203 222.86 18.9935 222.674 17.9959C222.488 16.9983 222.183 16.1869 221.761 15.5609C221.338 14.935 220.763 14.4785 220.036 14.1911C219.309 13.9036 218.421 13.7598 217.372 13.7598C216.595 13.7598 215.783 13.8108 214.937 13.9122C214.091 14.0135 213.466 14.0983 213.06 14.1659V35.5741H206.922V9.90462L206.921 9.90401Z" fill="white"/>
<path d="M203.743 3.80609C203.743 4.95541 203.371 5.86884 202.627 6.54516C201.883 7.22148 201.004 7.55995 199.989 7.55995C198.94 7.55995 198.044 7.22148 197.3 6.54516C196.556 5.86884 196.184 4.95541 196.184 3.80609C196.184 2.62238 196.556 1.69236 197.3 1.01604C198.045 0.339719 198.94 0.00125122 199.989 0.00125122C201.004 0.00125122 201.883 0.339719 202.627 1.01604C203.372 1.69236 203.743 2.62238 203.743 3.80609Z" fill="white"/>
<path d="M203.06 35.5735H196.921V9.90891H203.06V35.5735Z" fill="white"/>
<path d="M193.111 36.0821C191.285 36.0483 189.771 35.8456 188.571 35.4734C187.37 35.1011 186.415 34.5685 185.704 33.875C184.994 33.1821 184.495 32.319 184.208 31.2883C183.921 30.2569 183.777 29.0818 183.777 27.7623V1.01479L189.915 0V26.5952C189.915 27.3391 189.975 27.965 190.093 28.4718C190.211 28.9792 190.423 29.4104 190.727 29.7649C191.032 30.1199 191.446 30.3908 191.97 30.5769C192.495 30.7631 193.162 30.9068 193.974 31.0082L193.111 36.0815L193.111 36.0821Z" fill="white"/>
<path d="M231.054 22.4316C231.054 20.098 231.401 18.0518 232.094 16.2937C232.788 14.5351 233.709 13.0718 234.859 11.9053C236.009 10.7388 237.328 9.85916 238.816 9.267C240.305 8.67545 241.826 8.37936 243.382 8.37936C247.035 8.37936 249.884 9.51209 251.93 11.7788C253.977 14.0442 255 17.4265 255 21.9248C255 22.2633 254.991 22.6435 254.974 23.0662C254.958 23.4888 254.932 23.869 254.899 24.2075H237.396C237.565 26.3378 238.317 27.9865 239.653 29.1537C240.989 30.3208 242.926 30.9043 245.463 30.9043C246.95 30.9043 248.312 30.7692 249.546 30.4983C250.781 30.228 251.753 29.9405 252.463 29.6365L253.275 34.6588C252.937 34.8277 252.472 35.0053 251.88 35.1914C251.288 35.3769 250.612 35.5465 249.851 35.6988C249.09 35.8505 248.27 35.9777 247.39 36.079C246.511 36.1804 245.615 36.2314 244.702 36.2314C242.368 36.2314 240.338 35.8849 238.613 35.1914C236.889 34.4979 235.468 33.5341 234.352 32.2994C233.236 31.0647 232.407 29.6107 231.866 27.9368C231.325 26.2622 231.054 24.428 231.054 22.4322V22.4316ZM248.861 19.6919C248.861 18.8467 248.742 18.0432 248.506 17.2827C248.269 16.5216 247.922 15.8625 247.466 15.3041C247.009 14.7464 246.451 14.3065 245.792 13.9853C245.132 13.664 244.346 13.5031 243.432 13.5031C242.486 13.5031 241.657 13.6806 240.947 14.0356C240.237 14.3907 239.636 14.8557 239.146 15.4307C238.655 16.0056 238.275 16.6654 238.004 17.4093C237.734 18.1532 237.548 18.9142 237.446 19.6919H248.861Z" fill="white"/>
</svg>
