<?xml version="1.0" encoding="UTF-8"?>
<svg id="Capa_2" data-name="Capa 2" xmlns="http://www.w3.org/2000/svg" viewBox="0 0 56.69 56.69">
  <defs>
    <style>
      .cls-1 {
        fill: #fff;
      }

      .cls-2 {
        fill: #181d59;
      }
    </style>
  </defs>
  <g id="Capa_1-2" data-name="Capa 1">
    <circle class="cls-2" cx="28.35" cy="28.35" r="28.35"/>
    <path class="cls-1" d="M41.2,25.44c0,1.84-.24,3.52-.71,5.05-.47,1.53-1.16,2.85-2.04,3.95-.89,1.1-2,1.96-3.33,2.57s-2.84.92-4.52.92c-1.13,0-2.17-.14-3.12-.41-.95-.28-1.73-.58-2.34-.92v9.32h-5.56V14.19c1.13-.31,2.52-.6,4.18-.87s3.4-.41,5.23-.41,3.6.29,5.1.87,2.78,1.42,3.83,2.5c1.06,1.09,1.87,2.4,2.43,3.95.57,1.55.85,3.28.85,5.21h0ZM35.51,25.53c0-2.48-.56-4.41-1.68-5.78-1.12-1.38-2.92-2.07-5.39-2.07-.52,0-1.06.02-1.63.07s-1.12.15-1.68.3v13.73c.49.34,1.14.65,1.95.94s1.68.44,2.59.44c2.02,0,3.5-.69,4.43-2.07.93-1.38,1.4-3.23,1.4-5.55h.01Z"/>
  </g>
</svg>